<svg data-v-0dd9719b="" version="1.0" xmlns="http://www.w3.org/2000/svg" xmlns:xlink="http://www.w3.org/1999/xlink" width="100%" height="100%" viewBox="0 0 340.000000 250.000000" preserveAspectRatio="xMidYMid meet" color-interpolation-filters="sRGB" style="margin: auto;"> <rect data-v-0dd9719b="" x="0" y="0" width="100%" height="100%" fill="#000000" fill-opacity="1" class="background"/> <!----> <g data-v-0dd9719b="" fill="#d7dacb" class="basesvg" transform="translate(56.805946350097656,103.92149925231934)"><g data-gra="path-name" fill-rule="" class="tp-name" transform="translate(0,0)"><g transform="scale(1)"><g><path d="M26.65 0Q25.86 0 25.53-0.7L25.53-0.7 20.76-11.06 15.98-0.7Q15.65 0 14.86 0L14.86 0Q14.07 0 13.74-0.7L13.74-0.7 1.96-26.25Q1.76-26.71 1.93-27.2L1.93-27.2Q2.11-27.66 2.57-27.88L2.57-27.88Q3.03-28.1 3.5-27.92L3.5-27.92Q3.98-27.75 4.2-27.29L4.2-27.29 14.86-4.16 19.63-14.51Q19.96-15.21 20.76-15.21L20.76-15.21Q21.55-15.21 21.88-14.51L21.88-14.51 26.65-4.16 37.33-27.29Q37.53-27.75 38.01-27.92L38.01-27.92Q38.5-28.1 38.96-27.88L38.96-27.88Q39.42-27.66 39.6-27.2L39.6-27.2Q39.77-26.71 39.55-26.25L39.55-26.25 27.77-0.7Q27.44 0 26.65 0L26.65 0ZM68.09 0Q67.59 0 67.23-0.35L67.23-0.35Q66.86-0.73 66.86-1.23L66.86-1.23 66.86-18.91Q66.86-21.66 64.93-23.59L64.93-23.59Q62.97-25.55 60.24-25.55L60.24-25.55 52.37-25.55Q49.65-25.55 47.69-23.59L47.69-23.59Q45.75-21.66 45.75-18.91L45.75-18.91 45.75-1.23Q45.75-0.73 45.38-0.35L45.38-0.35Q45.03 0 44.52 0L44.52 0Q44.02 0 43.64-0.35L43.64-0.35Q43.29-0.73 43.29-1.23L43.29-1.23 43.29-18.91Q43.29-22.67 45.95-25.33L45.95-25.33Q48.61-27.99 52.37-27.99L52.37-27.99 60.24-27.99Q64-27.99 66.66-25.33L66.66-25.33Q69.32-22.67 69.32-18.91L69.32-18.91 69.32-1.23Q69.32-0.73 68.95-0.35L68.95-0.35Q68.6 0 68.09 0L68.09 0ZM97.64 0L74.07 0Q73.57 0 73.19-0.35L73.19-0.35Q72.84-0.73 72.84-1.23L72.84-1.23 72.84-26.76Q72.84-27.26 73.19-27.64L73.19-27.64Q73.57-27.99 74.07-27.99L74.07-27.99Q74.58-27.99 74.93-27.64L74.93-27.64Q75.3-27.26 75.3-26.76L75.3-26.76 75.3-2.46 97.64-2.46Q98.15-2.46 98.5-2.09L98.5-2.09Q98.87-1.74 98.87-1.23L98.87-1.23Q98.87-0.73 98.5-0.35L98.5-0.35Q98.15 0 97.64 0L97.64 0ZM127.19 0L103.62 0Q103.12 0 102.74-0.35L102.74-0.35Q102.39-0.73 102.39-1.23L102.39-1.23 102.39-26.76Q102.39-27.26 102.74-27.64L102.74-27.64Q103.12-27.99 103.62-27.99L103.62-27.99Q104.13-27.99 104.48-27.64L104.48-27.64Q104.85-27.26 104.85-26.76L104.85-26.76 104.85-2.46 127.19-2.46Q127.7-2.46 128.05-2.09L128.05-2.09Q128.42-1.74 128.42-1.23L128.42-1.23Q128.42-0.73 128.05-0.35L128.05-0.35Q127.7 0 127.19 0L127.19 0ZM167.91-27.99Q167.4-27.99 167.05-27.64L167.05-27.64Q166.68-27.26 166.68-26.76L166.68-26.76 166.68-15.21 145.57-15.21 145.57-26.76Q145.57-27.26 145.2-27.64L145.2-27.64Q144.85-27.99 144.34-27.99L144.34-27.99Q143.84-27.99 143.46-27.64L143.46-27.64Q143.11-27.26 143.11-26.76L143.11-26.76 143.11-1.23Q143.11-0.73 143.46-0.35L143.46-0.35Q143.84 0 144.34 0L144.34 0Q144.85 0 145.2-0.35L145.2-0.35Q145.57-0.73 145.57-1.23L145.57-1.23 145.57-12.77 166.68-12.77 166.68-1.23Q166.68-0.73 167.05-0.35L167.05-0.35Q167.4 0 167.91 0L167.91 0Q168.42 0 168.77-0.35L168.77-0.35Q169.14-0.73 169.14-1.23L169.14-1.23 169.14-26.76Q169.14-27.26 168.77-27.64L168.77-27.64Q168.42-27.99 167.91-27.99L167.91-27.99ZM181.74-2.46Q179.01-2.46 177.06-4.4L177.06-4.4Q175.12-6.35 175.12-9.08L175.12-9.08 175.12-26.76Q175.12-27.26 174.75-27.64L174.75-27.64Q174.4-27.99 173.89-27.99L173.89-27.99Q173.38-27.99 173.01-27.64L173.01-27.64Q172.66-27.26 172.66-26.76L172.66-26.76 172.66-9.08Q172.66-5.32 175.32-2.66L175.32-2.66Q177.98 0 181.74 0L181.74 0Q182.25 0 182.62-0.35L182.62-0.35Q182.97-0.73 182.97-1.23L182.97-1.23Q182.97-1.74 182.62-2.09L182.62-2.09Q182.25-2.46 181.74-2.46L181.74-2.46ZM197.46-27.99Q196.95-27.99 196.6-27.64L196.6-27.64Q196.23-27.26 196.23-26.76L196.23-26.76 196.23-9.08Q196.23-6.35 194.29-4.4L194.29-4.4Q192.34-2.46 189.61-2.46L189.61-2.46Q189.08-2.46 188.73-2.09L188.73-2.09Q188.38-1.74 188.38-1.23L188.38-1.23Q188.38-0.73 188.73-0.35L188.73-0.35Q189.08 0 189.61 0L189.61 0Q193.37 0 196.03-2.66L196.03-2.66Q198.69-5.32 198.69-9.08L198.69-9.08 198.69-26.76Q198.69-27.26 198.32-27.64L198.32-27.64Q197.97-27.99 197.46-27.99L197.46-27.99ZM224.77-14.01Q228.24-16.25 228.24-20.38L228.24-20.38Q228.24-23.53 226-25.77L226-25.77Q223.78-27.99 220.63-27.99L220.63-27.99 203.44-27.99Q202.93-27.99 202.56-27.64L202.56-27.64Q202.21-27.26 202.21-26.76L202.21-26.76Q202.21-26.25 202.56-25.9L202.56-25.9Q202.93-25.55 203.44-25.55L203.44-25.55 220.63-25.55Q222.77-25.55 224.26-24.03L224.26-24.03Q225.78-22.51 225.78-20.38L225.78-20.38Q225.78-18.25 224.26-16.73L224.26-16.73Q222.77-15.21 220.63-15.21L220.63-15.21 203.44-15.21Q202.93-15.21 202.56-14.86L202.56-14.86Q202.21-14.51 202.21-14.01L202.21-14.01Q202.21-13.48 202.56-13.13L202.56-13.13Q202.93-12.77 203.44-12.77L203.44-12.77 220.63-12.77Q222.77-12.77 224.26-11.26L224.26-11.26Q225.78-9.74 225.78-7.61L225.78-7.61Q225.78-5.47 224.26-3.96L224.26-3.96Q222.77-2.46 220.63-2.46L220.63-2.46 203.44-2.46Q202.93-2.46 202.56-2.09L202.56-2.09Q202.21-1.74 202.21-1.23L202.21-1.23Q202.21-0.73 202.56-0.35L202.56-0.35Q202.93 0 203.44 0L203.44 0 220.63 0Q223.78 0 226-2.24L226-2.24Q228.24-4.46 228.24-7.61L228.24-7.61Q228.24-11.74 224.77-14.01L224.77-14.01Z" transform="translate(-1.8518918752670288, 28.000999450683594)"/></g> <!----> <!----> <!----> <!----> <!----> <!----> <!----></g></g> <g data-gra="path-slogan" fill-rule="" class="tp-slogan" fill="#d7dacb" transform="translate(5,34.000999450683594)"><rect x="0" height="1" y="3.580000400543213" width="47.00405502319336"/> <rect height="1" y="3.580000400543213" width="47.00405502319336" x="169.38405227661133"/> <g transform="translate(50.00405502319336,0)"><g transform="scale(1)"><path d="M4.43-3.20L2.06-3.20L2.44-4.40C2.58-4.84 2.72-5.28 2.84-5.72C2.97-6.15 3.10-6.60 3.22-7.06L3.26-7.06C3.39-6.60 3.52-6.15 3.65-5.72C3.78-5.28 3.91-4.84 4.06-4.40ZM4.68-2.40L5.42 0L6.49 0L3.83-7.87L2.70-7.87L0.04 0L1.06 0L1.81-2.40ZM9.23-7.87L10.90 0L12.08 0L13.25-4.74C13.31-5.04 13.38-5.34 13.45-5.63C13.51-5.93 13.58-6.22 13.64-6.53L13.69-6.53C13.76-6.22 13.82-5.93 13.88-5.63C13.94-5.34 14.00-5.04 14.08-4.74L15.26 0L16.46 0L18.10-7.87L17.14-7.87L16.31-3.59C16.23-3.16 16.15-2.74 16.08-2.32C16.01-1.90 15.94-1.48 15.86-1.04L15.82-1.04C15.72-1.48 15.62-1.90 15.53-2.33C15.43-2.75 15.34-3.17 15.24-3.59L14.15-7.87L13.24-7.87L12.14-3.59C12.06-3.16 11.96-2.74 11.87-2.32C11.77-1.90 11.68-1.48 11.59-1.04L11.54-1.04C11.47-1.48 11.40-1.90 11.32-2.32C11.24-2.73 11.16-3.16 11.09-3.59L10.26-7.87ZM22.81-3.20L20.45-3.20L20.82-4.40C20.96-4.84 21.10-5.28 21.23-5.72C21.36-6.15 21.48-6.60 21.60-7.06L21.65-7.06C21.78-6.60 21.90-6.15 22.03-5.72C22.16-5.28 22.30-4.84 22.44-4.40ZM23.06-2.40L23.81 0L24.88 0L22.21-7.87L21.08-7.87L18.42 0L19.44 0L20.20-2.40ZM25.99-7.87L25.99 0L30.43 0L30.43-0.85L26.99-0.85L26.99-7.87ZM31.82-7.87L31.82 0L36.26 0L36.26-0.85L32.82-0.85L32.82-7.87ZM37.66-7.87L37.66 0L38.65 0L38.65-3.12L40.07-3.12C40.50-3.12 40.89-3.17 41.25-3.27C41.61-3.37 41.91-3.52 42.17-3.72C42.42-3.92 42.62-4.17 42.76-4.48C42.90-4.78 42.97-5.14 42.97-5.56C42.97-5.99 42.90-6.35 42.76-6.65C42.62-6.94 42.43-7.18 42.17-7.36C41.92-7.54 41.62-7.67 41.26-7.75C40.90-7.83 40.50-7.87 40.07-7.87ZM39.95-3.94L38.65-3.94L38.65-7.07L39.95-7.07C40.63-7.07 41.14-6.96 41.47-6.74C41.81-6.52 41.98-6.12 41.98-5.56C41.98-5.00 41.81-4.59 41.48-4.33C41.15-4.07 40.64-3.94 39.95-3.94ZM47.32-3.20L44.95-3.20L45.32-4.40C45.47-4.84 45.60-5.28 45.73-5.72C45.86-6.15 45.98-6.60 46.10-7.06L46.15-7.06C46.28-6.60 46.41-6.15 46.54-5.72C46.66-5.28 46.80-4.84 46.94-4.40ZM47.57-2.40L48.31 0L49.38 0L46.72-7.87L45.59-7.87L42.92 0L43.94 0L44.70-2.40ZM50.50-7.87L50.50 0L51.49 0L51.49-3.12L52.91-3.12C53.34-3.12 53.73-3.17 54.09-3.27C54.45-3.37 54.75-3.52 55.01-3.72C55.26-3.92 55.46-4.17 55.60-4.48C55.74-4.78 55.81-5.14 55.81-5.56C55.81-5.99 55.74-6.35 55.60-6.65C55.46-6.94 55.27-7.18 55.01-7.36C54.76-7.54 54.46-7.67 54.10-7.75C53.74-7.83 53.34-7.87 52.91-7.87ZM52.79-3.94L51.49-3.94L51.49-7.07L52.79-7.07C53.47-7.07 53.98-6.96 54.31-6.74C54.65-6.52 54.82-6.12 54.82-5.56C54.82-5.00 54.65-4.59 54.32-4.33C53.99-4.07 53.48-3.94 52.79-3.94ZM57.41-7.87L57.41 0L62.06 0L62.06-0.85L58.40-0.85L58.40-3.71L61.39-3.71L61.39-4.56L58.40-4.56L58.40-7.03L61.94-7.03L61.94-7.87ZM64.73-4.14L64.73-7.07L66.05-7.07C66.66-7.07 67.14-6.96 67.46-6.76C67.79-6.55 67.96-6.18 67.96-5.66C67.96-5.15 67.79-4.77 67.46-4.52C67.14-4.27 66.66-4.14 66.05-4.14ZM68.05 0L69.18 0L67.19-3.43C67.72-3.57 68.15-3.82 68.47-4.19C68.79-4.56 68.95-5.05 68.95-5.66C68.95-6.07 68.88-6.42 68.75-6.70C68.61-6.98 68.42-7.20 68.18-7.38C67.93-7.56 67.64-7.68 67.30-7.76C66.96-7.83 66.59-7.87 66.19-7.87L63.73-7.87L63.73 0L64.73 0L64.73-3.32L66.16-3.32ZM72.32-7.87L73.99 0L75.18 0L76.34-4.74C76.41-5.04 76.47-5.34 76.54-5.63C76.61-5.93 76.68-6.22 76.74-6.53L76.79-6.53C76.85-6.22 76.91-5.93 76.97-5.63C77.03-5.34 77.10-5.04 77.17-4.74L78.36 0L79.56 0L81.19-7.87L80.23-7.87L79.40-3.59C79.32-3.16 79.25-2.74 79.18-2.32C79.10-1.90 79.03-1.48 78.96-1.04L78.91-1.04C78.82-1.48 78.72-1.90 78.62-2.33C78.53-2.75 78.43-3.17 78.34-3.59L77.24-7.87L76.33-7.87L75.24-3.59C75.15-3.16 75.06-2.74 74.96-2.32C74.87-1.90 74.78-1.48 74.69-1.04L74.64-1.04C74.57-1.48 74.49-1.90 74.41-2.32C74.33-2.73 74.26-3.16 74.18-3.59L73.36-7.87ZM82.56-7.87L82.56 0L87.22 0L87.22-0.85L83.56-0.85L83.56-3.71L86.54-3.71L86.54-4.56L83.56-4.56L83.56-7.03L87.10-7.03L87.10-7.87ZM88.88-7.87L88.88 0L91.39 0C91.83 0 92.24-0.05 92.60-0.14C92.97-0.24 93.29-0.38 93.55-0.58C93.82-0.77 94.02-1.01 94.16-1.30C94.31-1.58 94.38-1.92 94.38-2.30C94.38-2.85 94.22-3.28 93.90-3.59C93.58-3.90 93.13-4.10 92.56-4.19L92.56-4.24C93.02-4.36 93.36-4.57 93.59-4.89C93.81-5.21 93.92-5.56 93.92-5.95C93.92-6.30 93.86-6.59 93.73-6.83C93.59-7.08 93.41-7.28 93.17-7.43C92.94-7.58 92.65-7.69 92.32-7.76C91.99-7.84 91.62-7.87 91.22-7.87ZM91.04-4.51L89.88-4.51L89.88-7.08L91.09-7.08C91.71-7.08 92.17-6.99 92.48-6.80C92.79-6.61 92.94-6.30 92.94-5.87C92.94-5.43 92.79-5.09 92.50-4.86C92.21-4.63 91.72-4.51 91.04-4.51ZM91.25-0.79L89.88-0.79L89.88-3.77L91.25-3.77C91.94-3.77 92.48-3.65 92.84-3.43C93.21-3.20 93.40-2.84 93.40-2.35C93.40-1.82 93.21-1.42 92.83-1.17C92.46-0.92 91.93-0.79 91.25-0.79ZM95.80-1.72L95.20-1.02C95.54-0.66 95.95-0.38 96.42-0.17C96.89 0.04 97.40 0.14 97.96 0.14C98.37 0.14 98.74 0.09 99.07-0.03C99.40-0.15 99.68-0.31 99.91-0.51C100.14-0.71 100.32-0.95 100.45-1.22C100.57-1.50 100.63-1.79 100.63-2.10C100.63-2.39 100.59-2.64 100.51-2.86C100.42-3.08 100.31-3.27 100.16-3.44C100.02-3.60 99.85-3.75 99.65-3.87C99.45-3.99 99.24-4.10 99.01-4.20L97.90-4.68C97.74-4.74 97.58-4.81 97.43-4.89C97.28-4.97 97.14-5.05 97.01-5.15C96.88-5.25 96.78-5.37 96.70-5.50C96.63-5.63 96.59-5.80 96.59-5.99C96.59-6.35 96.72-6.63 96.99-6.83C97.26-7.04 97.61-7.14 98.05-7.14C98.42-7.14 98.75-7.07 99.04-6.94C99.33-6.81 99.60-6.63 99.84-6.40L100.38-7.04C100.10-7.33 99.76-7.57 99.36-7.75C98.96-7.93 98.52-8.02 98.05-8.02C97.69-8.02 97.36-7.96 97.06-7.86C96.76-7.76 96.50-7.61 96.28-7.42C96.06-7.23 95.89-7.01 95.77-6.76C95.64-6.50 95.58-6.22 95.58-5.93C95.58-5.64 95.63-5.39 95.72-5.17C95.82-4.95 95.94-4.76 96.10-4.60C96.25-4.44 96.42-4.30 96.61-4.19C96.80-4.08 96.99-3.98 97.18-3.90L98.30-3.41C98.49-3.32 98.66-3.24 98.82-3.16C98.98-3.08 99.12-2.99 99.23-2.89C99.35-2.79 99.44-2.67 99.51-2.53C99.58-2.39 99.61-2.22 99.61-2.02C99.61-1.63 99.47-1.32 99.18-1.09C98.89-0.85 98.49-0.73 97.97-0.73C97.56-0.73 97.17-0.82 96.79-1.00C96.41-1.18 96.08-1.42 95.80-1.72ZM102.18-7.87L102.18 0L103.18 0L103.18-7.87ZM106.97-7.03L106.97 0L107.98 0L107.98-7.03L110.35-7.03L110.35-7.87L104.59-7.87L104.59-7.03ZM111.77-7.87L111.77 0L116.42 0L116.42-0.85L112.76-0.85L112.76-3.71L115.75-3.71L115.75-4.56L112.76-4.56L112.76-7.03L116.30-7.03L116.30-7.87Z" transform="translate(-0.036000000000000004, 8.016)"/></g></g></g></g><defs v-gra="od"/></svg>